# Blender3D v249 OBJ File: arrow.blend
# www.blender3d.org
mtllib arrow.mtl
v 0.394954 0.036405 -0.618062
v 0.539518 0.036405 -0.367671
v 0.539518 0.036405 -0.078545
v 0.394954 0.036405 0.171846
v 0.144564 0.036405 0.316409
v -0.144563 0.036405 0.316409
v -0.394953 0.036405 0.171846
v -0.539517 0.036405 -0.078544
v -0.539517 0.036405 -0.367671
v -0.394954 0.036405 -0.618061
v -0.144563 0.036405 -0.762625
v 0.144563 0.036405 -0.762625
v 0.394954 1.153503 -0.618062
v 0.539517 1.153503 -0.367671
v 0.539518 1.153503 -0.078545
v 0.394955 1.153503 0.171846
v 0.144564 1.153503 0.316409
v -0.144562 1.153503 0.316410
v -0.394953 1.153503 0.171847
v -0.539516 1.153503 -0.078544
v -0.539517 1.153503 -0.367670
v -0.394954 1.153503 -0.618061
v -0.144564 1.153503 -0.762625
v 0.144562 1.153503 -0.762625
vt 0.000000 0.000000
vt 1.000000 0.000000
vt 1.000000 1.000000
vt 0.000000 1.000000
vn 0.500000 -0.000000 -0.866026
vn 0.499999 0.000000 -0.866026
vn -0.000002 0.000000 -1.000000
vn -0.000001 -0.000000 -1.000000
vn -0.500002 0.000000 -0.866024
vn -0.500001 -0.000000 -0.866025
vn -0.866026 0.000000 -0.499999
vn -1.000000 0.000000 0.000002
vn -1.000000 -0.000000 0.000000
vn -0.866025 0.000000 0.500001
vn -0.866025 -0.000000 0.500000
vn -0.499999 0.000000 0.866026
vn -0.500000 -0.000000 0.866026
vn 0.000001 0.000000 1.000000
vn 0.000000 -0.000000 1.000000
vn 0.500001 0.000000 0.866025
vn 0.500000 -0.000000 0.866025
vn 0.866026 0.000000 0.499999
vn 0.866025 -0.000000 0.500000
vn 1.000000 0.000000 -0.000001
vn 1.000000 -0.000000 0.000000
vn 0.866025 0.000000 -0.500001
vn 0.866025 -0.000000 -0.500000
usemtl Material.002
s off
f 13/1/1 1/2/1 12/3/1
f 13/1/2 12/3/2 24/4/2
f 11/1/3 23/2/3 24/3/3
f 11/1/4 24/3/4 12/4/4
f 10/1/5 22/2/5 23/3/5
f 10/1/6 23/3/6 11/4/6
f 9/1/7 21/2/7 22/3/7
f 9/1/7 22/3/7 10/4/7
f 8/1/8 20/2/8 21/3/8
f 8/1/9 21/3/9 9/4/9
f 7/1/10 19/2/10 20/3/10
f 7/1/11 20/3/11 8/4/11
f 6/1/12 18/2/12 19/3/12
f 6/1/13 19/3/13 7/4/13
f 5/1/14 17/2/14 18/3/14
f 5/1/15 18/3/15 6/4/15
f 4/1/16 16/2/16 17/3/16
f 4/1/17 17/3/17 5/4/17
f 3/1/18 15/2/18 16/3/18
f 3/1/19 16/3/19 4/4/19
f 2/1/20 14/2/20 15/3/20
f 2/1/21 15/3/21 3/4/21
f 1/1/22 13/2/22 14/3/22
f 1/1/23 14/3/23 2/4/23
